<?xml version="1.0" encoding="UTF-8"?>
<!DOCTYPE svg PUBLIC "-//W3C//DTD SVG 1.1//EN" "http://www.w3.org/Graphics/SVG/1.1/DTD/svg11.dtd">
<!-- Creator: CorelDRAW Home & Student X7 -->
<svg xmlns="http://www.w3.org/2000/svg" xml:space="preserve" width="300mm" height="175mm" version="1.1" style="shape-rendering:geometricPrecision; text-rendering:geometricPrecision; image-rendering:optimizeQuality; fill-rule:evenodd; clip-rule:evenodd"
viewBox="0 0 30000 17500"
 xmlns:xlink="http://www.w3.org/1999/xlink">
 <defs>
  <style type="text/css">
   <![CDATA[
    .fil15 {fill:#0C3462;fill-rule:nonzero}
    .fil13 {fill:#1D90A3;fill-rule:nonzero}
    .fil5 {fill:#2F0A38;fill-rule:nonzero}
    .fil9 {fill:#2F3875;fill-rule:nonzero}
    .fil7 {fill:#38608C;fill-rule:nonzero}
    .fil12 {fill:#AB0000;fill-rule:nonzero}
    .fil17 {fill:#C70000;fill-rule:nonzero}
    .fil1 {fill:#F4492D;fill-rule:nonzero}
    .fil8 {fill:#F68E52;fill-rule:nonzero}
    .fil18 {fill:#F77203;fill-rule:nonzero}
    .fil11 {fill:#F7ADB6;fill-rule:nonzero}
    .fil3 {fill:#F97205;fill-rule:nonzero}
    .fil14 {fill:#F9B805;fill-rule:nonzero}
    .fil16 {fill:#FD9A5D;fill-rule:nonzero}
    .fil6 {fill:#FDAA74;fill-rule:nonzero}
    .fil2 {fill:red;fill-rule:nonzero}
    .fil0 {fill:#FFB5B5;fill-rule:nonzero}
    .fil4 {fill:#FFDEDE;fill-rule:nonzero}
    .fil10 {fill:white;fill-rule:nonzero}
   ]]>
  </style>
 </defs>
 <g id="Layer_x0020_1">
  <metadata id="CorelCorpID_0Corel-Layer"/>
  <g id="_187581328">
   <path class="fil0" d="M10604 2913c-72,-1780 1419,-2570 2945,-2570 1525,0 3184,395 3328,2761 93,1523 -719,2459 -3056,2459 -788,0 -1400,-124 -1869,-346l-1169 1038 574 -1435c-508,-472 -722,-1139 -753,-1907z"/>
   <path class="fil1" d="M23367 8590l573 6811c0,0 60,413 -247,414 -505,1 -2514,0 -2514,0 0,0 380,-86 376,-279 -6,-228 -670,-7011 -670,-7011l2482 65z"/>
   <path class="fil2" d="M21016 15691c100,1 2018,7 2510,0 214,-2 252,-190 253,-312 1,-58 -6,-101 -6,-101l-15 -177 -38 -452 -33 -398 -44 -512 -36 -433 -407 -4840 -2482 -64c0,0 280,2838 478,4904 22,230 43,451 62,657 7,66 13,130 19,193 18,195 35,375 49,533 8,84 15,161 21,233 26,278 40,456 41,490 0,20 -2,38 -5,55 -41,217 -329,224 -367,224z"/>
   <polygon class="fil3" points="29394,4883 27999,10488 27808,11256 27158,13866 15083,13866 17479,4883 "/>
   <polygon class="fil3" points="29394,4883 29588,4947 27415,14061 27158,13866 "/>
   <polygon class="fil2" points="27415,14061 15415,14061 15083,13866 27158,13866 "/>
   <polygon class="fil1" points="23201,15818 20603,15818 20603,15694 23201,15694 "/>
   <polygon class="fil3" points="21263,14061 21277,14156 23720,14649 23687,14251 23671,14061 "/>
   <path class="fil3" d="M21016 15691c100,1 2018,7 2510,0 214,-2 252,-190 253,-312l-2432 -457c26,278 40,456 41,490 0,20 -2,38 -5,55 -41,217 -329,224 -367,224z"/>
   <polygon class="fil2" points="21854,12048 27158,13866 27808,11256 "/>
   <polygon class="fil4" points="29394,4883 17479,4883 15546,12103 27600,12103 "/>
   <g>
    <path class="fil5" d="M25378 1057c25,-57 308,-664 1271,-332 0,0 -489,-124 -648,51 0,0 415,-132 643,49 228,180 207,693 151,843 -56,150 -384,576 -564,554 -68,-9 -138,-40 -199,-76 17,85 31,177 40,277 81,923 -601,1534 -890,1327 -185,-133 -378,197 -378,197l-1380 -2385c0,0 1316,-1240 1954,-505z"/>
    <path class="fil6" d="M22789 6675c1307,584 2290,-1479 2205,-1500 -131,-148 -266,-675 -170,-1433l-68 5 -1137 84c0,0 -18,353 -57,682 -26,216 -61,422 -107,512 -14,27 -260,62 -261,63 -19,21 -754,1431 -405,1587z"/>
    <g>
     <path class="fil6" d="M15805 5561l-267 371c0,0 116,101 302,260 57,48 91,73 91,73 150,126 335,273 536,434l2 3c351,270 750,567 1113,796 33,21 65,41 97,60 220,131 423,234 588,290 19,7 35,11 57,16 481,129 1451,-39 2402,-330 132,-40 261,-82 388,-123 467,-156 907,-334 1264,-516 215,-107 403,-215 543,-320 51,-36 99,-70 139,-107 773,-633 409,-1247 263,-1248 -184,-2 -441,46 -738,122 -469,127 -1046,328 -1612,537 -310,113 -619,230 -909,331 -173,65 -339,123 -491,176 -292,98 -535,171 -704,197 -110,17 -314,-21 -563,-90 -67,-18 -137,-38 -209,-60 -403,-122 -887,-301 -1307,-468 -207,-81 -399,-160 -559,-226 -258,-106 -426,-178 -426,-178z"/>
    </g>
    <g>
     <path class="fil7" d="M21049 7432c150,115 334,215 561,290 -94,345 -171,653 -209,862 -61,330 -118,893 -168,1490 -15,172 -28,347 -41,521 -43,578 -78,1134 -98,1489l5728 0c-107,-837 -251,-1779 -361,-2668 -54,-441 -100,-868 -128,-1263 -25,-341 -65,-645 -116,-915 -1,-2 -1,-4 -1,-6 -44,-227 -96,-430 -153,-612 0,0 0,-1 0,-1 -288,-915 -717,-1288 -966,-1434 -61,-36 -111,-58 -145,-71 -35,-13 -54,-17 -54,-17 -306,594 -1068,889 -1510,1015 -189,53 -320,76 -332,78 -1,0 -1,0 -1,0 0,0 -1,-2 -1,-5 0,-2 0,-4 0,-7 -10,-340 64,-742 108,-949 19,-88 32,-141 32,-141l0 0c-28,3 -66,8 -111,15 -242,34 -683,105 -825,157 -200,74 -1857,829 -1857,829 0,0 0,0 0,0 0,14 -30,824 648,1343z"/>
    </g>
    <path class="fil8" d="M23619 3831c0,0 -17,353 -57,682 624,58 1021,-468 1194,-766l-1137 84z"/>
    <path class="fil6" d="M23373 4117c0,0 1467,204 1580,-711 113,-916 379,-1506 -553,-1675 -932,-169 -1157,158 -1269,455 -112,296 -136,1855 242,1931z"/>
    <path class="fil5" d="M23237 1682c260,-248 425,-166 511,-72 857,-343 1295,373 1295,373 18,669 446,1103 446,1103 0,0 -288,133 -886,-101 -183,-72 -335,-227 -459,-407 199,450 502,793 502,793 -696,-431 -866,-1493 -883,-1605 -99,69 -298,223 -372,388 -102,224 -194,700 -332,666 0,0 -214,-767 178,-1138z"/>
    <path class="fil6" d="M15805 5561c0,0 -128,-113 -203,-225 -75,-112 -105,-224 -247,-321 -142,-97 -299,-352 -321,-307 -23,45 75,322 67,352 -7,29 -403,115 -553,72 -149,-43 -523,-162 -515,-87 7,74 403,493 530,568 127,74 508,52 658,104 149,52 317,215 317,215l267 -371z"/>
    <path class="fil6" d="M14825 5184c0,0 -389,-314 -558,-274l279 274 279 0z"/>
    <path class="fil6" d="M14486 5513l-588 -394c0,0 108,-41 228,0 119,41 360,394 360,394z"/>
    <g>
     <path class="fil9" d="M24000 11742c25,-14 2179,-497 2461,-2326 -54,-441 -100,-868 -128,-1263 -25,-344 -65,-649 -117,-921 -269,-42 -591,247 -735,676 -297,882 -1473,3797 -1481,3834z"/>
    </g>
    <g>
     <path class="fil6" d="M21267 10155l-8 462c0,0 2302,1257 2749,1111 607,-199 1279,-1194 1555,-2150 38,-132 73,-264 108,-392 124,-476 215,-942 256,-1341 28,-239 40,-455 29,-630 -3,-62 -5,-120 -15,-175 -109,-992 -822,-1023 -902,-900 -102,152 -202,394 -300,685 -150,462 -296,1055 -429,1643 -74,323 -145,645 -218,943 -40,181 -268,1074 -339,1230 -45,101 -2486,-486 -2486,-486z"/>
    </g>
    <g>
     <path class="fil7" d="M25128 5822c0,0 693,336 935,797 242,461 319,1912 -327,3689 0,0 -906,82 -1644,-897 0,0 274,-3866 1036,-3589z"/>
    </g>
    <g>
     <path class="fil9" d="M24843 4794c0,0 253,158 254,391 0,0 -299,816 -2042,1005 0,0 1604,-789 1788,-1396z"/>
    </g>
    <g>
     <path class="fil9" d="M23482 4989c0,0 -440,808 -427,1201 0,0 -30,-894 32,-1102 62,-208 433,-294 433,-294l-38 195z"/>
    </g>
    <g>
     <path class="fil10" d="M23805 3630c-15,0 -154,124 -339,89 -184,-34 -182,-179 -182,-179 0,0 126,-20 236,0 111,20 285,90 285,90z"/>
    </g>
    <path class="fil6" d="M21493 10389c0,0 -324,-493 -586,-503 -261,-10 -745,-145 -706,-48 38,97 338,106 367,164 30,58 -445,145 -580,155 -136,10 -455,0 -446,68 10,68 576,348 976,310 399,-39 893,116 893,116l82 -262z"/>
   </g>
   <g>
    <path class="fil2" d="M19206 11334c263,-24 483,-105 652,-242 147,-119 248,-274 291,-448 68,-274 -23,-547 -226,-679 -255,-166 -629,-85 -1026,223 -845,653 -1939,647 -2649,350 -524,-219 -854,-589 -905,-1015 -31,-255 42,-497 218,-721 27,-35 56,-69 88,-102 335,181 688,311 1016,368 470,82 807,1 924,-224 183,-349 106,-542 9,-643 -115,-120 -328,-178 -598,-164 -259,13 -547,90 -813,216 -220,105 -405,232 -549,375 -215,-119 -421,-259 -609,-416 -412,-342 -926,-923 -1036,-1739 -49,-361 72,-690 369,-1005 259,-275 604,-492 908,-683 401,-252 718,-451 632,-670 -63,-161 -205,-265 -410,-301 -66,-11 -138,-15 -213,-13 84,-245 94,-445 44,-622 89,-98 137,-207 140,-321 11,-393 -94,-696 -314,-901 -76,-71 -165,-130 -269,-178 -200,-251 -571,-443 -1071,-546 -809,-167 -1848,-52 -2185,430 -161,231 -140,525 61,850 28,46 58,91 90,134 -40,153 -27,309 41,466 87,204 264,403 526,592 40,28 79,55 118,79 48,194 126,348 225,441 222,207 684,329 1154,329 191,0 382,-20 560,-62 552,-131 772,-412 859,-632 76,-4 152,-1 224,12 187,32 310,121 366,264 68,174 -231,362 -609,600 -599,376 -1419,892 -1304,1745 113,835 637,1427 1057,1776 186,155 391,295 604,414 -236,253 -348,552 -311,859 54,447 397,834 941,1061 398,167 872,232 1335,183 510,-54 984,-241 1371,-540 377,-292 726,-372 960,-220 182,118 262,366 200,616 -40,162 -133,306 -271,417 -160,129 -369,206 -621,230l6 57zm-2130 -3241l0 0c211,0 384,49 480,149 120,124 114,323 -18,575 -103,198 -426,270 -863,194 -317,-56 -658,-180 -983,-354 140,-135 317,-255 520,-351 297,-141 608,-213 864,-213zm-1884 -4228l0 0c-88,203 -301,450 -806,570 -294,70 -633,81 -954,30 -310,-49 -568,-152 -707,-283 -85,-79 -151,-204 -194,-355 270,154 540,220 804,197 77,25 154,44 230,57 108,68 187,108 197,114l5 2c12,3 169,47 347,53 142,102 297,134 457,93 249,-64 415,-228 465,-452 51,-11 103,-20 156,-26zm-220 42l0 0c-51,189 -196,324 -415,379 -125,32 -237,12 -333,-38 128,-8 254,-44 333,-134 65,-75 226,-157 415,-207zm14 -64l0 0c-21,5 -43,10 -64,17 -185,53 -337,134 -409,215 -84,96 -235,120 -379,117 -41,-30 -78,-65 -111,-102 231,-33 443,-125 618,-268 130,-108 231,-236 292,-369 41,100 61,203 60,298 0,32 -3,62 -7,92zm-1034 255l0 0c27,33 55,62 84,88 -128,-12 -232,-40 -250,-44 -8,-5 -36,-19 -77,-43 82,7 163,7 243,-1zm-44 -55l0 0c-105,7 -212,1 -320,-17 -18,-11 -36,-23 -56,-36 93,-24 184,-60 273,-106 21,38 43,74 67,108 12,18 24,35 36,51zm948 -568l0 0c-59,109 -145,214 -252,302 -176,144 -392,234 -627,260 -20,-25 -40,-52 -57,-77 -22,-33 -44,-67 -64,-104 106,-61 209,-137 307,-229 164,-14 324,-41 476,-82 77,-21 150,-44 217,-70zm-2381 48l0 0c134,130 316,254 544,370 57,29 113,55 169,78 -205,-8 -432,-73 -678,-224 -16,-71 -27,-146 -35,-224zm912 438l0 0c-14,2 -28,4 -43,5 -98,-32 -198,-74 -298,-125 -252,-128 -446,-265 -577,-408 -3,-54 -4,-108 -2,-163 131,77 272,142 421,196 130,199 325,369 499,495zm390 -127l0 0c-94,49 -197,88 -309,112 -41,-28 -84,-60 -127,-94 -118,-92 -253,-214 -358,-354 33,11 66,21 100,30 194,54 398,89 602,103 28,71 59,139 92,203zm1439 -29l0 0c-55,4 -112,12 -170,24 3,-25 5,-51 5,-77 1,-106 -22,-220 -69,-332 119,-56 218,-121 294,-193 38,164 21,351 -60,578zm-1147 -171l0 0c-71,61 -151,120 -241,172 -28,-54 -55,-112 -79,-171 107,5 214,5 320,-1zm-1658 -178l0 0c2,30 5,60 8,89 5,55 13,108 23,159 -22,-15 -43,-30 -66,-46 -253,-183 -424,-374 -507,-568 -55,-128 -71,-256 -48,-382 116,149 250,282 401,398 18,89 60,180 124,269 20,27 42,54 65,81zm1727 115l0 0c-135,11 -274,12 -412,4 -44,-119 -78,-245 -101,-373 31,8 64,16 98,22 209,39 465,34 715,-11 -64,95 -135,185 -209,266 -28,30 -58,61 -91,92zm-575 -387l0 0c1,3 1,6 2,9 21,129 55,257 98,378 -191,-15 -382,-48 -564,-99 -55,-15 -112,-33 -171,-54 -54,-85 -95,-175 -114,-269 -35,-175 9,-345 132,-506 40,38 75,87 114,142 98,138 217,305 503,399zm1331 212l0 0c-82,35 -172,67 -270,93 -126,34 -259,59 -394,74 14,-15 28,-29 42,-44 93,-102 175,-211 247,-323 36,-8 73,-17 109,-27 33,-9 66,-19 97,-29 33,32 63,66 89,102 -119,92 -242,86 -248,86l-4 58c7,0 149,8 286,-97 19,30 37,60 52,91 -2,5 -4,11 -6,16zm-1993 -789l0 0c-135,175 -183,361 -144,554 16,78 45,153 84,225 -120,-47 -246,-107 -372,-182 10,-196 46,-397 109,-581 4,-13 9,-27 14,-40 36,-12 75,-19 114,-21 85,-5 145,12 195,45zm2357 555l0 0c-72,73 -170,141 -288,199 30,-90 41,-179 33,-264 16,-32 30,-67 42,-104 33,-21 62,-43 88,-66 55,75 97,152 125,235zm-2850 73l0 0c-1,42 -1,83 -1,125 -4,-6 -9,-13 -14,-19 -43,-60 -75,-120 -96,-180 36,26 73,50 111,74zm2537 -44l0 0c-3,37 -9,75 -20,114 -10,-18 -22,-36 -33,-54 10,-9 19,-19 29,-30 8,-10 16,-20 24,-30zm-2 -105l0 0c-19,35 -41,67 -65,95 -7,8 -14,16 -20,23 -23,-30 -46,-58 -72,-85 54,-20 105,-42 151,-65 2,11 4,21 6,32zm-462 59l0 0c-247,52 -518,65 -747,22 -43,-8 -82,-18 -119,-28 -27,-185 -24,-346 8,-459 178,74 410,149 701,229 87,23 165,58 235,101 -24,46 -50,91 -78,135zm-1961 -532l0 0c-59,175 -96,365 -108,555 -46,-29 -92,-61 -137,-95 -9,-54 -8,-106 3,-157 28,-129 121,-241 242,-303zm2157 482l0 0c-38,12 -76,22 -116,32 17,-28 33,-56 48,-85 24,17 46,35 68,53zm-1108 -438l0 0c-34,117 -40,276 -15,462 -248,-88 -353,-235 -447,-368 -40,-57 -78,-110 -124,-153 70,-80 143,-144 217,-193 57,85 177,167 369,252zm1381 -776l0 0c59,35 112,74 159,118 207,193 307,482 296,858 -2,89 -38,175 -103,256 -31,-80 -74,-154 -128,-226 28,-30 50,-62 66,-94 42,-88 54,-224 -123,-375 -12,-11 -25,-21 -37,-30 -10,-91 -25,-188 -46,-290 -16,-76 -44,-148 -84,-217zm-29 1116l0 0c-55,28 -116,54 -181,77 -32,-30 -67,-58 -104,-83 45,-89 83,-178 114,-264 81,90 140,183 171,270zm-2375 -460l0 0c-161,62 -290,202 -325,367 -8,39 -11,79 -10,120 -132,-107 -258,-235 -373,-388 6,-17 11,-34 18,-51 111,-280 420,-525 827,-654 124,-40 250,-66 373,-79 -221,152 -395,385 -510,685zm2448 420l0 0c-7,4 -14,8 -21,12 -39,-104 -109,-208 -202,-306 7,-22 14,-44 20,-65 89,68 167,135 234,204 -7,56 -17,107 -31,155zm-290 -278l0 0c-32,94 -71,187 -118,279 -74,-44 -156,-81 -246,-105 -296,-81 -525,-156 -698,-228 8,-19 18,-37 29,-52 87,-121 209,-219 349,-283 203,51 405,154 575,291 39,32 76,65 109,98zm393 203l0 0c-9,8 -19,16 -29,24 3,-16 6,-32 9,-48 7,8 14,16 20,24zm-9 -412l0 0c113,99 146,200 99,298 -12,25 -28,49 -49,73 -16,-19 -33,-38 -51,-57 10,-94 10,-199 1,-314zm-63 -52l0 0c11,113 14,217 7,310 -66,-64 -142,-127 -225,-191 20,-84 31,-163 34,-234 60,30 122,68 184,115zm-284 142l0 0c-5,18 -11,37 -16,57 -165,-157 -386,-290 -617,-363 42,-14 85,-26 128,-34 190,122 360,232 505,340zm-810 -290l0 0c-122,68 -228,159 -307,269 -13,18 -25,40 -35,64 -3,-1 -5,-3 -7,-4 -172,-76 -283,-152 -332,-225 237,-136 484,-139 681,-104zm-764 -487l0 0c-163,8 -332,38 -501,92 -424,135 -747,393 -864,689 -2,5 -3,9 -5,14 -22,-31 -42,-63 -63,-95 -191,-308 -212,-573 -62,-787 145,-207 453,-361 867,-433 390,-68 848,-58 1258,27 311,64 582,168 784,301 66,43 124,89 174,137 -288,-99 -663,-127 -1122,-83 -170,16 -326,63 -466,138zm7 571l0 0c-86,55 -165,125 -236,208 -59,-41 -132,-64 -235,-58 -29,1 -57,5 -85,12 92,-223 261,-505 562,-673 151,-6 297,9 431,43 -107,49 -211,111 -306,183 -109,82 -156,168 -139,255 2,10 4,20 8,30zm1611 -76l0 0c-1,65 -11,140 -29,221 -128,-94 -274,-190 -432,-292 124,-13 285,-3 461,71zm58 -453l0 0c68,88 113,183 134,284 16,80 29,157 39,231 -59,-41 -118,-74 -175,-101 -4,-97 -26,-174 -69,-224 -167,-195 -412,-283 -708,-255 -120,11 -245,42 -367,89 -121,-39 -253,-61 -392,-66 99,-40 210,-68 334,-80 511,-49 914,-8 1204,122zm-1115 368l0 0c-182,0 -351,44 -503,130 -1,-3 -2,-7 -2,-10 -13,-63 27,-130 117,-198 108,-82 230,-152 357,-203 85,28 164,66 235,111 78,51 155,100 228,148 3,1 5,3 8,5 -53,13 -104,31 -153,53 -10,-3 -20,-5 -30,-7 -88,-19 -174,-29 -257,-29zm439 -380l0 0c215,0 416,71 561,240 30,35 49,91 54,161 -187,-73 -357,-78 -486,-63 -16,2 -32,5 -47,7 -19,-12 -38,-24 -57,-36 -74,-47 -150,-96 -229,-147 -56,-37 -117,-69 -181,-95 128,-43 259,-67 385,-67z"/>
   </g>
   <g>
    <path class="fil2" d="M17142 16055l0 229c0,132 107,239 239,239l10933 0c217,-135 415,-294 592,-481 69,-71 134,-147 195,-227l-11720 0c-132,0 -239,107 -239,240z"/>
    <path class="fil2" d="M19390 16489l1 34 22 633c105,0 209,0 313,0l16 -633 2 -53 -354 19z"/>
   </g>
   <path class="fil11" d="M847 8874c0,0 2624,-573 7686,0l580 5901 -6949 -344 -1317 -5557z"/>
   <path class="fil11" d="M9167 8874l12 135 25 274 72 785 0 4 167 1836 19 208 150 1654 59 647 111 1222 82 903 55 604c313,2 632,3 955,4 343,1 690,2 1042,3l33 0c48,0 96,0 144,0 26,0 52,0 78,0 402,1 809,2 1217,2 65,0 130,0 195,1l57 0c117,0 233,0 350,0 76,0 151,0 226,0 175,0 350,1 525,1 41,0 82,0 122,0 50,0 100,0 149,0 22,0 43,0 65,0 28,0 57,0 86,0l72 0c360,0 720,0 1078,0l222 0c50,-1389 -20,-4671 -1811,-4671 -537,0 -973,-1 -1323,-31 -740,-63 -1092,-255 -1203,-832 -58,-301 -49,-709 4,-1258 112,-1143 -735,-1496 -1562,-1574 -111,-10 -220,-16 -327,-17 -121,-3 -237,0 -348,5 -307,16 -564,53 -697,76 -65,11 -101,19 -101,19z"/>
   <path class="fil12" d="M7867 8874l65 720 288 3164 95 1041 31 343 50 548 4 49 115 1262 45 494 58 645c105,1 211,1 317,2 38,0 76,0 114,1 49,0 98,0 148,0 25,0 49,1 74,1 141,0 284,1 428,1 73,1 146,1 220,1 313,2 632,3 955,4 343,1 690,2 1042,3l33 0c48,0 96,0 144,0 26,0 52,0 78,0 402,1 809,2 1217,2 65,0 130,0 195,1l57 0c117,0 233,0 350,0 76,0 151,0 226,0 175,0 350,1 525,1 41,0 82,0 122,0 50,0 100,0 149,0 22,0 43,0 65,0 28,0 57,0 86,0l72 0c50,-1390 -20,-4671 -1811,-4671 -18,0 -36,0 -54,0 -1956,-5 -2713,-289 -3081,-1753 -52,-205 -96,-433 -134,-687 -5,-30 -11,-60 -17,-89 -4,-17 -8,-33 -12,-49 0,0 0,0 0,-1 -90,-341 -305,-573 -568,-729 -92,-55 -189,-100 -289,-137 -30,-12 -60,-22 -90,-32 -218,-71 -444,-109 -646,-129 -375,-35 -666,-6 -666,-6z"/>
   <path class="fil5" d="M9662 4764c0,0 167,-788 -833,-1005 -999,-216 -1814,331 -2260,751 -445,421 -178,1707 -840,1745 -662,38 -1256,343 -1120,1076 136,732 -560,409 -496,1124 63,715 611,1352 1998,1365 1388,12 3845,-722 3896,-815 51,-93 1487,-831 510,-1579 -960,-735 697,-2154 -855,-2662z"/>
   <path class="fil13" d="M6693 17126c198,2 404,4 615,6 139,1 280,2 423,3 74,0 148,1 222,1 135,1 271,2 409,3 12,0 24,0 36,0 73,0 146,1 220,1 105,1 211,1 317,2 38,0 76,0 114,1 49,0 98,0 148,0 25,0 49,1 74,1 141,0 284,1 428,1 73,1 146,1 220,1 313,2 632,3 955,4 343,1 690,2 1042,3l33 0c48,0 96,0 144,0 26,0 52,0 78,0 402,1 809,2 1217,2 65,0 130,0 195,1l57 0c117,0 233,0 350,0 76,0 151,0 226,0 175,0 350,1 525,1 41,0 82,0 122,0 50,0 100,0 149,0 22,0 43,0 65,0 -35,-53 -79,-101 -135,-141 -162,-117 -345,-240 -548,-362 -222,-134 -468,-268 -738,-394 -733,-342 -1636,-624 -2680,-683 -420,-24 -819,1 -1194,62 -181,30 -357,68 -527,113 -260,68 -507,153 -740,249 -195,80 -380,168 -555,261 -20,10 -41,21 -61,32 -495,269 -901,572 -1206,832z"/>
   <g>
    <path class="fil9" d="M7899 16294c19,20 40,39 63,55 39,28 84,50 136,65 121,35 279,61 462,81 213,22 460,36 721,42 190,5 387,7 583,5 972,-5 1927,-71 1927,-71 0,0 379,294 380,682 402,1 809,2 1217,2 65,0 130,0 195,1l57 0c117,0 233,0 350,0 76,0 151,0 226,0 60,-163 121,-333 178,-502 185,-543 342,-1084 354,-1394 51,-1296 -3172,-1491 -5136,-1490 -52,0 -103,0 -153,1 -159,1 -307,3 -444,5 -42,1 -82,2 -122,3 -248,6 -447,14 -578,20 -114,6 -177,10 -177,10 0,0 -42,106 -98,276 -55,163 -123,385 -183,628 -6,23 -12,47 -17,71 -9,37 -17,75 -26,113 -116,540 -164,1132 85,1397z"/>
   </g>
   <g>
    <path class="fil7" d="M5004 16397c415,343 1010,575 1670,729l1 0c5,1 9,3 14,4 1,-1 3,-2 4,-4 198,2 404,4 615,6 139,1 280,2 423,3 74,0 148,1 222,1 135,1 271,2 409,3 12,0 24,0 36,0 73,0 146,1 220,1 105,1 211,1 317,2 38,0 76,0 114,1 49,0 98,0 148,0 25,0 49,1 74,1 141,0 284,1 428,1 73,1 146,1 220,1 313,2 632,3 955,4 343,1 690,2 1042,3l33 0c48,0 96,0 144,0 26,0 52,0 78,0 402,1 809,2 1217,2 65,0 130,0 195,1l27 0c13,-288 28,-587 46,-896 0,-1 0,-3 1,-4 42,-735 -1913,-1372 -3986,-1839 -178,-40 -356,-78 -535,-116 -23,-5 -47,-10 -71,-15 -6,-1 -13,-3 -20,-4 -235,-49 -469,-95 -699,-140 -103,-19 -205,-39 -306,-57 -123,-23 -244,-45 -364,-67 -1022,-183 -1909,-313 -2391,-379 -245,-35 -386,-52 -386,-52 0,0 -114,435 -182,970 -86,680 -99,1521 287,1840z"/>
   </g>
   <path class="fil14" d="M5176 14698c452,1028 3229,142 3938,-380 963,-710 -365,-791 -66,-1577 164,-431 977,-1173 1118,-1784 72,-313 -143,-2279 -334,-2660 -191,-382 -1095,-715 -1776,-675 -1106,66 -1442,214 -1587,572 -214,534 -353,1223 -429,1848 -57,470 -78,904 -68,1206 0,19 1,37 1,55 6,128 -18,285 -61,463 -109,446 -339,1018 -522,1552 0,0 -1,0 -1,0 -196,572 -337,1099 -213,1380z"/>
   <g>
    <path class="fil15" d="M9805 4589c21,-148 53,-475 -134,-707 -161,-200 -430,-314 -801,-339 -589,-40 -1025,98 -1288,221 -285,133 -480,333 -486,339l78 -32c5,-6 584,-565 1694,-490 359,24 573,117 727,309 178,220 146,449 125,590 -1,7 68,71 68,72l-153 54c0,0 169,-13 170,-17z"/>
   </g>
   <g>
    <path class="fil15" d="M4600 7273l84 -95c-80,-272 -53,-515 129,-724 158,-181 344,-266 572,-231 548,84 648,-40 652,-48l37 37 -7 -63 -34 -57c-1,2 -127,172 -643,93 -240,-37 -474,52 -641,243 -190,218 -234,561 -149,845z"/>
   </g>
   <path class="fil11" d="M498 9341l241 994 1285 5323 0 1c372,379 797,693 1257,931 137,72 278,136 422,193 513,206 1063,319 1629,328 86,1 174,2 264,3 144,2 295,4 451,6 133,1 271,3 412,4 14,0 28,0 42,1l0 0c57,0 115,1 173,1l1 0c5,1 9,3 14,4 1,-1 3,-2 4,-4 198,2 404,4 615,6 139,1 280,2 423,3 74,0 148,1 222,1 135,1 271,2 409,3 12,0 24,0 36,0 73,0 146,1 220,1 105,1 211,1 317,2 38,0 76,0 114,1 49,0 98,0 148,0 25,0 49,1 74,1 6,-176 11,-382 10,-607 -1,-243 -8,-509 -26,-785 -27,-434 -81,-892 -176,-1324 0,0 0,0 0,0 -5,-25 -11,-50 -16,-74 -6,-24 -12,-48 -18,-72 -43,-174 -93,-343 -152,-503 -156,-427 -374,-790 -673,-1021 -157,-122 -336,-207 -541,-247 -85,-16 -174,-25 -269,-25 -39,0 -79,0 -118,0 -91,1 -180,1 -268,2 -240,1 -469,3 -684,2 -85,-1 -167,-2 -248,-4l0 0c-139,-3 -272,-8 -399,-17 -1073,-76 -1677,-401 -1595,-1715l0 0c13,-206 42,-436 90,-694 176,-956 -168,-1322 -964,-1421l0 0c0,0 0,0 0,0 -348,-43 -782,-36 -1297,-4 -9,1 -18,1 -27,2 0,0 0,0 0,0 -232,15 -479,34 -742,55 -272,23 -724,383 -660,649z"/>
   <g>
    <path class="fil6" d="M9204 7900c-24,209 -54,404 -608,395 -364,-6 -876,-288 -815,-601 28,-149 292,-540 322,-1417l66 16 1120 266c0,0 -39,354 -52,689 -12,281 -19,530 -33,652z"/>
    <path class="fil16" d="M9289 6798c0,0 -39,354 -52,689 -631,-42 -942,-472 -1067,-796l1119 107z"/>
    <path class="fil6" d="M9907 6903c0,0 -1353,637 -1737,-212 -383,-849 -816,-1339 32,-1781 848,-442 1163,-195 1360,58 197,252 687,1748 345,1935z"/>
   </g>
   <path class="fil5" d="M8464 5019c0,0 567,-135 1098,-126 361,6 398,-741 -406,-994 -815,-256 -1741,61 -2060,292 -527,381 537,2311 592,2320 55,9 384,150 384,150 0,0 84,-270 8,-327 -245,-181 -243,-531 48,-487 246,38 11,-783 336,-828z"/>
   <g>
    <path class="fil9" d="M10180 10775c212,-71 400,-190 556,-317 -261,-139 -537,-529 -599,-501 -70,32 43,818 43,818z"/>
   </g>
   <path class="fil17" d="M419 9226l153 1646 0 0 278 2976 0 0c220,551 517,1049 875,1480l0 0c95,115 195,225 299,330l0 1c372,379 797,693 1257,931 137,72 278,136 422,193 513,206 1063,319 1629,328 86,1 174,2 264,3 144,2 295,4 451,6 133,1 271,3 412,4 14,0 28,0 42,1l0 0c57,0 115,1 173,1l1 0c5,1 9,3 14,4 1,-1 3,-2 4,-4 198,2 404,4 615,6 139,1 280,2 423,3 74,0 148,1 222,1 8,-223 13,-492 9,-787 -1,-29 -1,-58 -2,-87 -9,-430 -38,-909 -105,-1378 -5,-33 -10,-66 -15,-100 -4,-24 -8,-49 -12,-73 -39,-238 -89,-472 -152,-693 -178,-626 -460,-1150 -900,-1392 -131,-72 -276,-119 -436,-136 -78,-9 -160,-10 -246,-4 -1,0 -1,0 -2,0l0 0c-144,11 -283,21 -416,31 -185,14 -359,26 -522,37l0 0c-2117,137 -2514,-37 -2014,-2278 236,-1055 -81,-1471 -690,-1595 -157,-32 -333,-45 -524,-44l0 0c-9,0 -17,0 -26,0 0,0 0,0 0,0 -328,3 -698,45 -1089,96 -210,27 -440,186 -392,493z"/>
   <path class="fil6" d="M13409 11553c0,0 358,-545 646,-555 288,-11 821,-160 779,-54 -43,107 -374,118 -406,182 -32,64 491,160 641,171 149,10 501,0 490,74 -10,75 -634,384 -1075,342 -440,-43 -984,128 -984,128l-91 -288z"/>
   <path class="fil14" d="M9261 7856l25 3782c0,0 91,180 260,426 58,85 126,177 202,272 326,409 814,876 1424,1033 59,16 120,28 181,37 332,49 656,-22 954,-155 1,0 1,0 1,0 843,-374 1477,-1235 1477,-1235 149,-405 -94,-680 -94,-680 0,0 -1703,383 -1865,302 -162,-81 -1108,-2806 -1333,-3148 -225,-343 -1232,-634 -1232,-634z"/>
   <path class="fil18" d="M5912 11766l1528 483c-153,-591 -1471,-1166 -1471,-1166l3 165c0,19 1,37 1,55 6,128 -18,285 -61,463z"/>
   <path class="fil18" d="M9524 12033c59,84 148,208 224,303 326,409 814,876 1424,1033 -1321,-632 -1185,-2472 -1249,-2192 -66,285 -354,775 -354,775l-45 81z"/>
   <path class="fil6" d="M7290 12195c0,0 484,223 610,426 126,203 281,813 184,920 -97,106 -508,-274 -545,-448 -36,-174 -159,-160 -276,-240 -116,-79 -203,-312 -203,-312l230 -346z"/>
   <path class="fil6" d="M7725 12481c0,0 457,442 406,467 -50,24 -308,-103 -337,-156 -29,-54 -69,-311 -69,-311z"/>
   <path class="fil14" d="M7789 7631c0,0 -898,66 -1292,208 -393,143 -2782,3083 -2812,3842 -11,273 317,1061 3316,937 0,0 439,-110 438,-369 0,-258 -1605,-696 -1620,-973 -15,-278 1474,-774 1459,-1328 -14,-555 511,-2317 511,-2317z"/>
   <polygon class="fil6" points="15101,5063 15306,4978 15132,4793 15045,4832 "/>
  </g>
 </g>
</svg>
